<svg xmlns="http://www.w3.org/2000/svg" version="1.1" xmlns:xlink="http://www.w3.org/1999/xlink" xmlns:svgjs="http://svgjs.dev/svgjs" viewBox="0 0 8.169697358445598 8.039932203780467"><g transform="matrix(0.8561558268467915,0,0,0.8561558268467915,4.0866126573969765,5.814243914868616)"><g transform="matrix(1,0,0,1,0,0)"><path d=" M -2.3785504103300212 0.41552927392895833 Q -2.4264078816025667 0.3700797145977892 -2.443796913755982 0.3266732454858296 Q -2.461185945909397 0.2832667763738701 -2.4672103096879363 0.24168905347970693 Q -2.4713831284073815 0.21703976172650136 -2.4869160584175356 0.21814795182736496 Q -2.50244898842769 0.21925614192822862 -2.53496051776603 0.24768149082814972 L -2.5516381213913113 0.2318430080309241 Q -2.523331337202513 0.20494085256172795 -2.4843872763820216 0.1653856995875595 Q -2.44544321556153 0.12583054661339105 -2.382089284372628 0.05912013211226669 L -2.3654116807473464 0.0749586149094923 Q -2.3934630803363017 0.11175697059423395 -2.4100426395496752 0.1408321871246444 Q -2.4266221987630483 0.1699074036550548 -2.4336863561185575 0.1976760492982368 Q -2.4407505134740664 0.22544469494141878 -2.4356701639822056 0.25785133082113565 Q -2.4347580761256236 0.29319490301951245 -2.419092896731381 0.32462104109828716 Q -2.4034277173371392 0.3560471791770618 -2.377323642097569 0.38083784790315406 Q -2.338167529238213 0.41802385099229245 -2.2909872815216215 0.42352605286073 Q -2.2438070338050298 0.42902825472916745 -2.1930240189242403 0.40968050551595125 Q -2.1422410040434507 0.3903327563027351 -2.0919140330909523 0.3533132209903306 Q -2.0415870621384533 0.31629368567792604 -1.9961375028072843 0.26843621440538035 Q -1.9499993137892795 0.21985362993173546 -1.9159873898615123 0.16733992666552328 Q -1.881975465933745 0.11482622339931105 -1.8666865143925522 0.06314936241907108 Q -1.8513975628513588 0.011472501438831106 -1.8603953464628218 -0.03568722597854579 Q -1.8693931300742845 -0.08284695339592266 -1.907824129732541 -0.11934432679822521 Q -1.9317528653688139 -0.14206910646380977 -1.964652028691085 -0.15607428595907252 Q -1.9975511920133562 -0.17007946545433528 -2.0314810213237977 -0.16920386111201657 Q -2.0804193267717426 -0.1743070228656412 -2.1212149326513288 -0.15168030103243035 Q -2.1620105385309145 -0.1290535791992195 -2.218044927764465 -0.08021561012573164 L -2.234722531389746 -0.09605409292295725 Q -2.169302711140336 -0.16493984702737907 -2.129742987661535 -0.20804759897851682 Q -2.0901832641827345 -0.25115535092965463 -2.0640883031114967 -0.2815371383472935 L -2.047410699486216 -0.2656986555500679 Q -2.0741213232157625 -0.23176426915545972 -2.0748076743605153 -0.21724604191842778 Q -2.075494025505268 -0.20272781468139578 -2.0499007194653833 -0.19772954638639456 Q -2.0051671591669806 -0.191103191202045 -1.961646682428065 -0.1766647666197893 Q -1.918126205689149 -0.16222634203753356 -1.8709938476177026 -0.11746541239320035 Q -1.7941318483011897 -0.04447066558859536 -1.7660964253477487 0.04145526216212296 Q -1.7380610023943075 0.1273811899128413 -1.7619350261796514 0.2164150654226541 Q -1.785809049964995 0.3054489409324669 -1.8643128342642872 0.3881118458577731 Q -1.9414393591899075 0.46932452438088096 -2.0322769035341355 0.4989013825221786 Q -2.123114447878363 0.5284782406634763 -2.213126542647035 0.5078125010116838 Q -2.3031386374157066 0.4871467613598915 -2.3785504103300212 0.41552927392895833 M -2.936847673460483 -0.2970428205201394 Q -2.990707986894061 -0.38833940663833283 -2.994067814392997 -0.47866084129908987 Q -2.997427641891932 -0.5689822759598469 -2.950451024991582 -0.6477823233240314 Q -2.9034744080912316 -0.726582370688216 -2.8044262250384744 -0.7850157296020036 Q -2.707961907630572 -0.8419247400223882 -2.612748442173598 -0.8458485131648585 Q -2.5175349767166235 -0.849772286307329 -2.4361510637075843 -0.804320017900382 Q -2.3547671506985455 -0.7588677494934348 -2.3024311857583704 -0.6701550290200958 Q -2.248570872324792 -0.5788584429019024 -2.2452110448258566 -0.4885370082411453 Q -2.2418512173269214 -0.39821557358038834 -2.289258478501414 -0.31916146813396995 Q -2.3366657396759067 -0.24010736268755156 -2.434852634180379 -0.18218211993823158 Q -2.5313169515882814 -0.12527310951784704 -2.6267844751274896 -0.12177998064951906 Q -2.7222519986666978 -0.11828685178119103 -2.8031277955112692 -0.1628778316398533 Q -2.8840035923558403 -0.20746881149851565 -2.936847673460483 -0.2970428205201394 M -2.9193120149334852 -0.3027437572874189 Q -2.890857509723293 -0.25451159858346767 -2.8310127042250643 -0.24163335123069407 Q -2.771167898726836 -0.22875510387792036 -2.6916934897118097 -0.24951728853446117 Q -2.6122190806967835 -0.270279473191002 -2.52264507167516 -0.32312355429564477 Q -2.431348485556966 -0.37698386772922304 -2.376694296710533 -0.4388338446212025 Q -2.3220401078640993 -0.5006838215131819 -2.3075383977163395 -0.5597448103534508 Q -2.2930366875685793 -0.6188057991937195 -2.3199668442853683 -0.6644540922528163 Q -2.3484213494955606 -0.7126862509567675 -2.408266154993789 -0.7255644983095412 Q -2.4681109604920173 -0.7384427456623148 -2.548016013781186 -0.7174265029235402 Q -2.6279210670703548 -0.6964102601847655 -2.7166337875436937 -0.6440742952445904 Q -2.8087916622101723 -0.5897058656465444 -2.863015206782463 -0.5281099468367989 Q -2.917238751354754 -0.4665140280270532 -2.931740461502514 -0.40745303918678444 Q -2.9462421716502742 -0.34839205034651566 -2.9193120149334852 -0.3027437572874189 M -3.2798628143982964 -1.1537390303899533 L -3.260599694938082 -1.1591178991057258 Q -3.2504924621482587 -1.1266395394591502 -3.239525438197388 -1.1115324422640886 Q -3.2285584142465176 -1.0964253450690273 -3.2100895241040983 -1.0953529193572638 Q -3.191620633961679 -1.0942804936455004 -3.1559838629602828 -1.1042314007696794 L -2.666700628670841 -1.2408546661502982 Q -2.6368427935075087 -1.2491919126597453 -2.6236056993733965 -1.2575602660751228 Q -2.6103686052392847 -1.2659286194905002 -2.6091835617573778 -1.280275942305088 Q -2.6079985182754704 -1.2946232651196756 -2.6152599910417633 -1.320628476390965 L -2.6284382193954055 -1.3678231190684897 Q -2.6408096174416817 -1.4121282938269826 -2.677863363528055 -1.440716226612803 Q -2.7149171096144284 -1.4693041593986234 -2.7704145438640793 -1.4802829932030712 Q -2.82591197811373 -1.491261827007519 -2.892169706690323 -1.4831431199755774 L -2.8983554057134615 -1.5052957073548239 Q -2.8648012723237315 -1.5115503162526047 -2.8127908497811527 -1.5260732617851902 Q -2.7906382624019064 -1.5322589608083286 -2.7485283430252236 -1.5450556279560383 Q -2.706418423648541 -1.5578522951037483 -2.6624948100959807 -1.575308416450867 Q -2.6507050068167826 -1.5256495749557435 -2.633974204912816 -1.4638731209651636 Q -2.6172434030088496 -1.4020966669745836 -2.6037962312194187 -1.353938868324048 Q -2.5946521544026058 -1.321191565241684 -2.579591321998443 -1.267254830753084 Q -2.56453048959428 -1.2133180962644838 -2.547105475153092 -1.1527737416827033 Q -2.5296804607119037 -1.0922293871009228 -2.5132312032332966 -1.0407568514299215 L -2.532494322693511 -1.0353779827141492 Q -2.5430268245847683 -1.0656610869789147 -2.5531088553954504 -1.0794579219323543 Q -2.5631908862061326 -1.093254756885794 -2.5820068826171627 -1.093711132893158 Q -2.600822879028193 -1.0941675089005216 -2.6354964940565786 -1.0844855452121314 L -3.113221856669892 -0.9510896010609761 Q -3.1488586276712884 -0.941138693936797 -3.1642346683021385 -0.9311348259589374 Q -3.1796107089329886 -0.9211309579810776 -3.181433656067046 -0.9034907520937748 Q -3.1832566032011034 -0.885850546206472 -3.175882512664667 -0.8557237676073512 L -3.1951456321248815 -0.8503448988915789 Q -3.200906062046586 -0.8746927416526353 -3.2113730020945916 -0.9158958139413793 Q -3.2218399421425974 -0.9570988862301232 -3.234749227060451 -1.0033303729346374 Q -3.2465827382351504 -1.0457092357471087 -3.2589759902291773 -1.0863744211642754 Q -3.271369242223204 -1.127039606581442 -3.2798628143982964 -1.1537390303899533 M -3.4070083995659175 -1.989402833637454 Q -3.4082375074502136 -2.095395707425312 -3.366162229185343 -2.1753889631343633 Q -3.3240869509204716 -2.2553822188434145 -3.2441025585335517 -2.3003126870637125 Q -3.1641181661466318 -2.345243155284011 -3.0491258974145214 -2.3465766213848984 Q -2.9371334269971623 -2.347875301413589 -2.852617283101187 -2.303852336713846 Q -2.7681011392052115 -2.259829372014104 -2.7201708726701628 -2.1798797656993805 Q -2.672240606135114 -2.0999301593846575 -2.671046284323015 -1.9969370839115506 Q -2.6698171764387184 -1.8909442101236926 -2.7118924547035896 -1.8109509544146414 Q -2.7539677329684604 -1.7309576987055901 -2.834452091741172 -1.6860214328065923 Q -2.914936450513884 -1.6410851669075948 -3.0289287864744106 -1.6397632961641064 Q -3.1409212568917697 -1.638464616135416 -3.2254431984664444 -1.6829875472209503 Q -3.3099651400411196 -1.7275104783064845 -3.357883811218769 -1.806460151849624 Q -3.4058024823964193 -1.8854098253927634 -3.4070083995659175 -1.989402833637454 M -3.388963228247817 -1.9856118189843022 Q -3.388313888233472 -1.9296155837756226 -3.342835706180152 -1.8886401648378606 Q -3.2973575241268325 -1.8476647459000988 -3.2181019396302526 -1.8260822917739912 Q -3.138846355133673 -1.8044998376478838 -3.0348533468889825 -1.805705754817382 Q -2.9288604731011243 -1.8069348627016784 -2.8506614321454897 -1.8333433839328823 Q -2.7724623911898547 -1.8597519051640865 -2.7304696464444107 -1.90374178341743 Q -2.6884769016989667 -1.9477316616707734 -2.689091455641115 -2.0007280985647022 Q -2.68974079565546 -2.0567243337733823 -2.73521897770878 -2.097699752711144 Q -2.7806971597621 -2.138675171648906 -2.8604527106444713 -2.160251828096314 Q -2.9402082615268426 -2.181828484543722 -3.0432013369999495 -2.180634162731623 Q -3.150194143559391 -2.179393459489927 -3.227893218129234 -2.152990735937423 Q -3.3055922926990773 -2.126588012384918 -3.3475850374445213 -2.0825981341315747 Q -3.3895777821899653 -2.038608255878231 -3.388963228247817 -1.9856118189843022 M -3.3566986724920533 -2.6077229161709603 Q -3.3492541222114265 -2.6316097048023193 -3.337274472974369 -2.672398649433887 Q -3.3252948237373112 -2.713187594065454 -3.314410586241878 -2.7537527684659544 Q -3.3019714576756685 -2.800112967780812 -3.291275612130573 -2.843834803150287 Q -3.2805797665854777 -2.8875566385197615 -3.275655944861353 -2.9059075507485597 Q -3.2396343017217046 -3.040158961264501 -3.1778074488072363 -3.095010490492889 Q -3.1159805958927684 -3.1498620197212768 -3.035816084577494 -3.1283526932422063 Q -3.0029776100628034 -3.119541643841141 -2.973284295970394 -3.0970792953840114 Q -2.9435909818779846 -3.0746169469268816 -2.923780251194229 -3.034616510057071 Q -2.903969520510473 -2.9946160731872604 -2.9020979781944347 -2.9340624000587106 Q -2.900226435878396 -2.8735087269301607 -2.923031504916447 -2.788515028186255 L -2.947909762048866 -2.69579462955654 L -2.96722651176339 -2.700977599792461 L -2.944939739748931 -2.784039623564914 Q -2.929649977552965 -2.8410240352227594 -2.9434772913720257 -2.8763129200528192 Q -2.9573046051910863 -2.9116018048828787 -2.9905433030201642 -2.9324270051610815 Q -3.023782000849242 -2.953252205439284 -3.0682105251926473 -2.965173036981901 Q -3.144511686565017 -2.9856457694137877 -3.1937817755243953 -2.9698752800765815 Q -3.243051864483774 -2.9541047907393754 -3.260673963285904 -2.8884278417099942 Q -3.270780755245949 -2.8507601797666724 -3.2573417258742583 -2.835247523980289 Q -3.243902696502567 -2.8197348681939047 -3.193679147244805 -2.806259145580511 L -2.7146237543246112 -2.677721483729679 Q -2.6798536048384682 -2.668392137305022 -2.6610432132805184 -2.6690395702641876 Q -2.6422328217225686 -2.669687003223353 -2.632291420619475 -2.6835855119241963 Q -2.6223500195163814 -2.697484020625039 -2.6121255921674558 -2.7278725231446854 L -2.592808842452932 -2.7226895529087645 Q -2.6017375272428773 -2.697130237817749 -2.6128455349693778 -2.657660475158873 Q -2.623953542695878 -2.618190712499997 -2.634837780191311 -2.577625538099497 Q -2.647276908757521 -2.5312653387846393 -2.657807801765989 -2.490087671385378 Q -2.6683386947744574 -2.4489100039861165 -2.672885732597906 -2.4242457698193696 L -2.69220248231243 -2.4294287400552905 Q -2.685841404906409 -2.4608538366221206 -2.68749005363203 -2.477862127464516 Q -2.6891387023576505 -2.4948704183069115 -2.705098460285844 -2.5048471976907343 Q -2.7210582182140373 -2.5148239770745566 -2.7558283677001802 -2.5241533234992137 L -3.234883760620374 -2.6526909853500458 Q -3.270619747592243 -2.6622794802864993 -3.28894722040733 -2.6615024730714354 Q -3.307274693222417 -2.660725465856372 -3.3178285873242714 -2.646473612668564 Q -3.328382481426126 -2.632221759480756 -3.3373819227775297 -2.60253994593504 L -3.3566986724920533 -2.6077229161709603 M -2.964847296329803 -2.69826847928562 Q -2.9527380728368477 -2.739540342660051 -2.941677382258094 -2.7691867779250376 Q -2.9306166916793406 -2.798833213190025 -2.9219825336819203 -2.8213654415679637 Q -2.9133483756845 -2.8438976699459024 -2.907458716474649 -2.861989433662904 Q -2.8761495020154006 -2.9478074567696195 -2.8349355796947613 -2.981787783533032 Q -2.7937216573741215 -3.015768110296445 -2.730470802605749 -3.0122567898795314 L -2.625029125804642 -3.0077787553362425 Q -2.58406328976943 -3.006105352235937 -2.5660184048798502 -3.0116173509044626 Q -2.547973519990271 -3.017129349572988 -2.543049698266146 -3.0354802618017858 Q -2.540646605098524 -3.048295297628022 -2.5437559489197517 -3.057930233071573 Q -2.54686529274098 -3.067565168515124 -2.5548980199660076 -3.0800741770021425 L -2.5396798909721485 -3.0904861196607567 Q -2.5167359387331296 -3.0563749036804726 -2.511730736541503 -3.0229354367137136 Q -2.506725534349876 -2.9894959697469554 -2.5181280688689016 -2.946999120375003 Q -2.5321220885058873 -2.894843896145788 -2.563406548590451 -2.86699999991668 Q -2.5946910086750146 -2.8391561036875714 -2.657423566419795 -2.8445990990759373 L -2.7586719882047435 -2.853128875512469 Q -2.801051202187816 -2.8572522506078193 -2.8340665681061514 -2.855757053872132 Q -2.867081934024487 -2.854261857136445 -2.8894850264668523 -2.842153948604463 Q -2.9118881189092174 -2.8300460400724816 -2.9199217227748946 -2.8001050780149694 L -2.947909762048866 -2.69579462955654 L -2.964847296329803 -2.69826847928562 M -2.6682685962957993 -4.135721532663808 Q -2.6340792130637607 -4.1077378575261 -2.600972049224885 -4.083506355250222 Q -2.5678648853860095 -4.059274852974345 -2.549648755068012 -4.046939027252582 Q -2.533088636597105 -4.035724640232797 -2.5176238106222995 -4.026459697838535 Q -2.502158984647494 -4.017194755444274 -2.4916621942139603 -4.0112941291559485 L -2.504558739286713 -3.992249992914405 Q -2.5706103652154164 -4.024902446301167 -2.617575723336868 -4.031344894323758 Q -2.66454108145832 -4.037787342346348 -2.697815283378503 -4.0198617325498915 Q -2.731089485298687 -4.001936122753434 -2.7563218560932032 -3.9646758561938933 L -2.7793113494837627 -3.930727613328534 Q -2.79613293001344 -3.905887435622173 -2.8001233309850577 -3.891077752975819 Q -2.804113731956675 -3.8762680703294654 -2.7949112428202136 -3.8639976101223947 Q -2.7857087536837524 -3.8517271499153236 -2.7592125641303014 -3.8337841306836675 L -2.328649483886718 -3.542210068169256 Q -2.3029813002568122 -3.5248277682885893 -2.2877576146486858 -3.5205570076414774 Q -2.2725339290405593 -3.516286246994365 -2.260263468833488 -3.5254887361308267 Q -2.247993008626417 -3.534691225267288 -2.2311714280967396 -3.5595314029736485 L -2.2036961798982664 -3.6001036932273704 Q -2.17846380910375 -3.6373639597869114 -2.175265107003755 -3.6768641914935167 Q -2.1720664049037604 -3.7163644232001216 -2.197245059211155 -3.763004377823478 Q -2.22242371351855 -3.8096443324468336 -2.2813748358393178 -3.8652659575320634 L -2.268478290766565 -3.884310093773607 Q -2.2436642592660814 -3.8638830567713143 -2.2006079512417234 -3.8347256505198732 Q -2.18156381500018 -3.8218291054471205 -2.146226846860286 -3.799106898629117 Q -2.110889878720392 -3.776384691811114 -2.070826015405905 -3.7552923506343245 Q -2.1010787141534473 -3.71418548723549 -2.137378755578532 -3.661473467804082 Q -2.173678797003617 -3.608761448372674 -2.20171476455308 -3.5673611521954065 Q -2.220779222486714 -3.5392089507948645 -2.2521795061421126 -3.4928406190763246 Q -2.2835797897975105 -3.446472287357785 -2.318491105948061 -3.3940275544989333 Q -2.353402422098611 -3.3415828216400816 -2.38202525520494 -3.295749063066654 L -2.398585373675847 -3.306963450086439 Q -2.3822983662912818 -3.3345810783418686 -2.3782948922167257 -3.35119348922453 Q -2.3742914181421697 -3.367805900107191 -2.3861115683355454 -3.382452881004497 Q -2.3979317185289206 -3.397099861901803 -2.4277399317765536 -3.417285758537416 L -2.838430869855048 -3.6954025566280855 Q -2.869067089026226 -3.7161491726146876 -2.8866411491187107 -3.7214077286775002 Q -2.9042152092111952 -3.726666284740313 -2.918849117005563 -3.7166488627832446 Q -2.93348302479993 -3.7066314408261762 -2.9516933306041424 -3.68152397654726 L -2.9682534490750494 -3.6927383635670448 Q -2.937146598198084 -3.7368899640875046 -2.900993273162216 -3.7884936179198725 Q -2.864839948126348 -3.8400972717522404 -2.8334396644709496 -3.8864656034707803 Q -2.8020393808155517 -3.93283393518932 -2.782974922881917 -3.9609861365898618 Q -2.7571818327364115 -3.999074409072948 -2.724793753665313 -4.047793115275846 Q -2.692405674594214 -4.096511821478743 -2.6682685962957993 -4.135721532663808 M -2.472562789197612 -3.814786590552409 Q -2.472562789197612 -3.814786590552409 -2.4642827299621586 -3.8091793970425165 Q -2.456002670726705 -3.8035722035326236 -2.456002670726705 -3.8035722035326236 L -2.5541285571498245 -3.658671166912187 Q -2.5541285571498245 -3.658671166912187 -2.562408616385278 -3.6642783604220797 Q -2.5706886756207314 -3.669885553931972 -2.5706886756207314 -3.669885553931972 L -2.472562789197612 -3.814786590552409 M -2.56559870992691 -3.9128137166658057 Q -2.520645249688782 -3.8775406899652367 -2.4955247123069273 -3.8611331123973316 Q -2.470404174925072 -3.844725534829427 -2.449704026836438 -3.8307075510546955 Q -2.429003878747804 -3.816689567279964 -2.4036029816904545 -3.800695992673832 Q -2.378202084633105 -3.7847024180677 -2.3287628695870626 -3.756053438755494 L -2.3416594146598153 -3.7370093025139504 Q -2.3734432187388492 -3.7524944501808477 -2.4058531076835643 -3.758137950742663 Q -2.43826299662828 -3.7637814513044785 -2.4675990899886004 -3.7534546112091456 Q -2.4969351833489206 -3.743127771113813 -2.5193639573884905 -3.710007534171999 L -2.535924075859398 -3.721221921191784 Q -2.5134953018198276 -3.754342158133598 -2.5182541677140833 -3.78655012602045 Q -2.523013033608339 -3.8187580939073023 -2.540977862713612 -3.846624111118564 Q -2.558942691818885 -3.8744901283298256 -2.5784952549996634 -3.8937695804242622 L -2.56559870992691 -3.9128137166658057 M -2.2933265372923377 -4.527088288177296 L -2.2793523123155786 -4.511412796596522 Q -2.3129426514172375 -4.48146802878918 -2.316617067248534 -4.466805195901273 Q -2.32029148307983 -4.4521423630133645 -2.295866930382555 -4.445783021417097 L -1.6149826005001686 -4.277101281680355 Q -1.5814212609304192 -4.269509411931474 -1.565809444323901 -4.270030163546397 Q -1.5501976277173828 -4.270550915161319 -1.5339377095474305 -4.282366796893397 L -1.5199634845706713 -4.266691305312623 Q -1.5355579634560161 -4.254128971600508 -1.5649212976243283 -4.229961956755475 Q -1.5942846317926405 -4.205794941910443 -1.6248891629741518 -4.178511931241532 Q -1.6584795020758105 -4.1485671634341905 -1.6921913602206133 -4.116504558729883 Q -1.7259032183654162 -4.084441954025575 -1.7424061746216564 -4.068390398499564 L -1.7563803995984155 -4.084065890080338 Q -1.72204360851672 -4.114676097172286 -1.7162918621361714 -4.128511465384729 Q -1.710540115755623 -4.142346833597171 -1.7349646684528983 -4.148706175193439 L -2.419257207453752 -4.319708283565721 Q -2.452737534328072 -4.3287120445792455 -2.46834935093459 -4.328191292964323 Q -2.4839611675411084 -4.3276705413494 -2.50030209840649 -4.314442768352678 L -2.5142763233832492 -4.330118259933452 Q -2.4979353925178676 -4.3433460329301745 -2.4667059283994632 -4.369176645986727 Q -2.435476464281059 -4.395007259043278 -2.4048719330995474 -4.422290269712189 Q -2.371281593997889 -4.45223503751953 -2.34130199575327 -4.4809704458008 Q -2.311322397508652 -4.509705854082069 -2.2933265372923377 -4.527088288177296 M -2.0517084020055303 -4.269579692785752 Q -2.0517084020055303 -4.269579692785752 -2.0400718833854845 -4.262537574183703 Q -2.0284353647654383 -4.255495455581654 -2.0284353647654383 -4.255495455581654 L -2.0119153807778862 -4.086687605855846 Q -2.0058397386105513 -4.019761627549552 -1.9846180253379515 -3.988442481875132 Q -1.9633963120653517 -3.957123336200712 -1.9329596371800668 -3.9567934545136265 Q -1.902522962294782 -3.956463572826541 -1.8676827573193373 -3.9835035454091643 L -1.8543739716271856 -3.968574505808427 Q -1.8692219985324936 -3.95667761138092 -1.8926947295559402 -3.9364222195481036 Q -1.9161674605793868 -3.916166827715287 -1.9388937396227963 -3.896576875167078 Q -1.961620018666206 -3.876986922618869 -1.9743097023268328 -3.86567445478054 Q -2.0190968211290445 -3.825748097704085 -2.0409869666364013 -3.802214684656532 L -2.054295752328553 -3.8171437242572694 Q -2.036155204442554 -3.849391522978977 -2.029578831341758 -3.896114122615974 Q -2.023002458240962 -3.9428367222529714 -2.0272438079453328 -4.004699562089866 L -2.0517084020055303 -4.269579692785752 M -2.0246848371744965 -4.765234539371381 L -2.011376051482345 -4.7503054997706435 Q -2.030020013262093 -4.721627935558261 -2.0349819633596713 -4.678354051387446 Q -2.0399439134572495 -4.63508016721663 -2.035557876083194 -4.588082692006218 L -2.0127482113739283 -4.319047900211827 Q -2.0127482113739283 -4.319047900211827 -2.0240115040039557 -4.32642273845618 Q -2.0352747966339835 -4.333797576700532 -2.0352747966339835 -4.333797576700532 L -2.0508863032506404 -4.5060946482402375 Q -2.0569156081648923 -4.59851568200556 -2.091744151329601 -4.621053929076352 Q -2.1265726944943095 -4.643592176147143 -2.174102583130381 -4.60523973572619 L -2.1874113688225325 -4.620168775326928 Q -2.165098822116856 -4.638720062600511 -2.137561111550921 -4.661929424866347 Q -2.110023400984987 -4.685138787132183 -2.0913621014840653 -4.701774769247372 Q -2.0465749826818533 -4.741701126323827 -2.0246848371744965 -4.765234539371381 M -1.2756726353260286 -5.183734936061744 Q -1.255939496452876 -5.136537444282912 -1.2358090978875245 -5.0940401849171595 Q -1.2156786993221729 -5.051542925551407 -1.204261236104308 -5.029302387480831 Q -1.1942138684725867 -5.009730713978725 -1.184190276375472 -4.99239498205098 Q -1.174166684278357 -4.975059250123234 -1.1668832833535294 -4.963061247332426 L -1.1873445783784586 -4.952557181171991 Q -1.2399411991556528 -5.01997821262969 -1.2841151543718317 -5.052380553294509 Q -1.3282891095880107 -5.0847828939593285 -1.3678985612026422 -5.087492385200904 Q -1.4075080128172734 -5.09020187644248 -1.4484306028671319 -5.069193744121608 L -1.4688918978920609 -5.058689677961173 L -1.2081170379960255 -4.550715788429237 Q -1.1898490968474418 -4.515130927516316 -1.1731533433291543 -4.501220434553931 Q -1.1564575898108669 -4.487309941591544 -1.1330277543492928 -4.49203146785363 Q -1.1095979188877187 -4.496752994115717 -1.069997873354792 -4.515958107856336 L -1.0608639027805 -4.498165677399876 Q -1.0888988685167278 -4.484897644532547 -1.135171075470827 -4.462267291826568 Q -1.1814432824249266 -4.4396369391205885 -1.2312620877030147 -4.414061821512571 Q -1.28019127145828 -4.388943402433268 -1.3233260275478926 -4.36567555300343 Q -1.3664607836375053 -4.342407703573592 -1.3926927307934809 -4.3278171261893315 L -1.4018267013677728 -4.345609556645791 Q -1.3622504313694521 -4.367050611960771 -1.344757676781168 -4.383337218019556 Q -1.3272649221928838 -4.399623824078342 -1.3292819205845916 -4.421069842764519 Q -1.3312989189762996 -4.442515861450695 -1.3495668601248834 -4.478100722363616 L -1.6103417200209187 -4.9860746118955515 L -1.6299133935230248 -4.97602724426383 Q -1.670835983572883 -4.955019111942959 -1.6917207955102158 -4.921254120748791 Q -1.7126056074475489 -4.887489129554623 -1.711806645352643 -4.833381721008557 Q -1.711007683257737 -4.779274312462491 -1.6882014957278104 -4.695435909505672 L -1.7086627907527394 -4.684931843345237 Q -1.7132773271090977 -4.698299941722188 -1.7219664869219782 -4.716320721443005 Q -1.7306556467348586 -4.734341501163823 -1.7407030143665798 -4.753913174665929 Q -1.7521204775844448 -4.776153712736504 -1.7749197407182653 -4.817280876516113 Q -1.797719003852086 -4.858408040295723 -1.8245691149078225 -4.901951943844837 Q -1.7831898263292496 -4.922070454642886 -1.7342487548066812 -4.946070902935008 Q -1.685307683284113 -4.970071351227131 -1.6363784995288477 -4.995189770306434 Q -1.5874493157735823 -5.020308189385737 -1.54830596876937 -5.040402924649179 Q -1.508273000242335 -5.060954358441336 -1.4597886272484812 -5.085844428256282 Q -1.4113042542546275 -5.110734498071227 -1.3628317690280767 -5.136742538673353 Q -1.3143592838015261 -5.162750579275479 -1.2756726353260286 -5.183734936061744 M -1.0459083777737703 -5.267440637495232 Q -1.021293992970151 -5.271927513996693 -0.9796024947275416 -5.280238288586735 Q -0.9379109964849321 -5.288549063176777 -0.8969259242313556 -5.297726418589374 Q -0.8500858416558397 -5.308214824775198 -0.806391772703498 -5.3190235406280655 Q -0.7626977037511565 -5.329832256480932 -0.7441568377316814 -5.333983917262821 Q -0.6085157652734163 -5.364356593509272 -0.5312410115407993 -5.33503318246002 Q -0.4539662578081821 -5.305709771410768 -0.4358300554451939 -5.224715461957271 Q -0.42840076773023483 -5.191537070132948 -0.4345239165353656 -5.15481164231093 Q -0.44064706534049636 -5.118086214488913 -0.46689154000295385 -5.081979046922187 Q -0.49313601466541146 -5.04587187935546 -0.5459105496889114 -5.016121275108599 Q -0.5986850847124114 -4.986370670861738 -0.6845585694341907 -4.967141926187726 L -0.7782387345852226 -4.946165113816077 L -0.7826089038293162 -4.965681814889209 L -0.6986870892148501 -4.984473542638811 Q -0.6411128210491117 -4.997365541908887 -0.6162662923121911 -5.025986338713403 Q -0.5914197635752706 -5.0546071355179185 -0.5883917277908953 -5.093713797345394 Q -0.58536369200652 -5.13282045917287 -0.5954150812679353 -5.177708871641073 Q -0.6126772497821048 -5.254799840879943 -0.6495057493903926 -5.291130428772274 Q -0.6863342489986806 -5.3274610166646035 -0.7526910326473282 -5.312602441234685 Q -0.7907485997399348 -5.304080611208703 -0.798256058999506 -5.284978567981187 Q -0.8057635182590772 -5.265876524753671 -0.794401078224434 -5.215133101963529 L -0.6860208809709136 -4.731118915349864 Q -0.6781545763315453 -4.695988853418227 -0.6688543312167499 -4.679625618994534 Q -0.6595540861019544 -4.663262384570841 -0.6426296744702209 -4.660903509644177 Q -0.6257052628384876 -4.658544634717512 -0.5940415241970676 -4.663585235400749 L -0.589671354952974 -4.644068534327617 Q -0.6164559183261111 -4.640120475955404 -0.6565744097571333 -4.631649546531841 Q -0.6966929011881556 -4.623178617108277 -0.7376779734417321 -4.61400126169568 Q -0.7845180560172481 -4.603512855509856 -0.8258817915665506 -4.593738328339328 Q -0.867245527115853 -4.583963801168801 -0.8912043865328583 -4.576549419506371 L -0.8955745557769518 -4.596066120579503 Q -0.8647848509843505 -4.6050100614773655 -0.8504825408990733 -4.61436120719458 Q -0.836180230813796 -4.623712352911794 -0.834746290338369 -4.6424791804197385 Q -0.833312349862942 -4.661246007927683 -0.8411786545023103 -4.69637606985932 L -0.9495588517558307 -5.180390256472985 Q -0.9576436648574038 -5.216496153458279 -0.966834655741097 -5.232371470355144 Q -0.97602564662479 -5.2482467872520076 -0.993547230014454 -5.250984325474398 Q -1.011068813404118 -5.253721863696789 -1.0415382085296767 -5.247923936422101 L -1.0459083777737703 -5.267440637495232 M -0.7839050485500154 -4.96231729280383 Q -0.7417256327805777 -4.970737321624974 -0.7103313032037812 -4.974692833023451 Q -0.6789369736269848 -4.978648344421929 -0.6549706611837152 -4.9814529598807 Q -0.6310043487404454 -4.984257575339471 -0.6122449742587657 -4.987433401067703 Q -0.5216959166783792 -4.9995109906990765 -0.4724733295159727 -4.978765222141625 Q -0.4232507423535664 -4.958019453584175 -0.3970173619993408 -4.900358290266127 L -0.3520667841581575 -4.804872974370207 Q -0.3345439301870612 -4.767806148383786 -0.32128944425522044 -4.7543778721473275 Q -0.3080349583233797 -4.740949595910869 -0.28949409230390466 -4.745101256692758 Q -0.27702674506857383 -4.748917701755075 -0.26993394365461854 -4.756142116478926 Q -0.26284114224066335 -4.763366531202777 -0.25548638478834884 -4.776285801415046 L -0.23920259249070053 -4.767634899242033 Q -0.2587763766110833 -4.731484284099152 -0.28607739903467433 -4.711536748546443 Q -0.3133784214582652 -4.691589212993734 -0.35631516381915485 -4.6819748406567285 Q -0.4090102567166104 -4.670175383697676 -0.44819017822529833 -4.684971793754614 Q -0.4873700997339864 -4.699768203811551 -0.5116518099808989 -4.757866384054008 L -0.5510676871671851 -4.851516737099982 Q -0.5670758879553777 -4.890972250118126 -0.5837172550513909 -4.919525969686262 Q -0.6003586221474041 -4.9480796892543975 -0.6214781421371809 -4.962308739658463 Q -0.6425976621269576 -4.976537790062527 -0.6728485487903118 -4.969764027734182 L -0.7782387345852226 -4.946165113816077 L -0.7839050485500154 -4.96231729280383 M 0.14693542251991074 -5.416662325288892 L 0.3700028727316703 -4.7832857290556365 Q 0.3828565791110734 -4.746860706992334 0.399920583195028 -4.732813651620378 Q 0.4169845872789826 -4.718766596248423 0.4309459282247198 -4.717324043304202 L 0.43031299418681457 -4.697334060950441 Q 0.4003913140599642 -4.700282460242675 0.3599274231445465 -4.702063901228277 Q 0.31946353222912893 -4.703845342213879 0.2784840684039196 -4.705142856991584 Q 0.2325071089902702 -4.706598605278766 0.19151182181411328 -4.707396370497627 Q 0.15051653463795636 -4.708194135716489 0.12646526240965308 -4.706954658326599 L 0.12709819644755824 -4.72694464068036 Q 0.1781359448534384 -4.7273296571190775 0.19211970682160331 -4.742394662967656 Q 0.20610346878976823 -4.757459668816235 0.1877274682326658 -4.80906705785623 L 0.03252833460699581 -5.279214086903358 L 0.05134213297465709 -5.304631423329132 L -0.1131138268644461 -4.913640071412751 Q -0.14344165809996012 -4.840563244356904 -0.14414448321313594 -4.802566454533811 Q -0.14484730832631176 -4.764569664710718 -0.12128655997738498 -4.750316905776444 Q -0.09772581162845823 -4.736064146842169 -0.057809140324727504 -4.732799280530982 L -0.058442074362632684 -4.7128092981772225 Q -0.09136225184254718 -4.715852637575142 -0.12133140202224049 -4.717301788190843 Q -0.15130055220193378 -4.718750938806545 -0.18228502485026277 -4.719731986565298 Q -0.20427400543939947 -4.720428214006994 -0.2237800615852637 -4.720545575135108 Q -0.24328611773112793 -4.720662936263221 -0.2583418979002389 -4.719138638556274 L -0.2577089638623338 -4.7391286209100345 Q -0.23659289558330407 -4.742462036640986 -0.21387604085057643 -4.764754288906115 Q -0.1911591861178488 -4.787046541171244 -0.16842913604216092 -4.841354411904286 L 0.07796998339943659 -5.418845947719665 Q 0.09393032258054981 -5.417340101371653 0.1124210562577784 -5.416754637386591 Q 0.130911789935007 -5.416169173401528 0.14693542251991074 -5.416662325288892 M 0.20354545255827375 -4.9926584284918745 L 0.2029125185203686 -4.972668446138114 L -0.09493821855066475 -4.982099163302901 L -0.08431029333587928 -5.0017726786377095 L 0.20354545255827375 -4.9926584284918745 M 1.0039432174040805 -5.280651090438088 Q 1.0672621031215428 -5.262030706137571 1.1025341508356652 -5.231332454557836 Q 1.1378061985497876 -5.200634202978101 1.1621303385022543 -5.166380207363388 Q 1.1770859741059132 -5.146347010821384 1.1904038940981754 -5.154417513103132 Q 1.2037218140904375 -5.162488015384881 1.21969078481456 -5.202612720667438 L 1.2417564571100392 -5.196123798865743 Q 1.2288347486379925 -5.159272347738773 1.2122173211471416 -5.1063090481475815 Q 1.1955998936562908 -5.05334574855639 1.1696442064495096 -4.965083059374473 L 1.14757853415403 -4.971571981176168 Q 1.155759492475795 -5.017113960941408 1.1572536046580237 -5.050550731550827 Q 1.1587477168402527 -5.083987502160246 1.152369613923108 -5.111921707056365 Q 1.1459915110059633 -5.139855911952483 1.126690248238635 -5.166378755985251 Q 1.109758997701913 -5.197416358264789 1.0814850792614576 -5.218239075090949 Q 1.0532111608210024 -5.23906179191711 1.0186735867932954 -5.249218365171938 Q 0.9668672257517354 -5.2644532250541785 0.9223702771179733 -5.247831806273451 Q 0.8778733284842111 -5.231210387492723 0.8415037429526095 -5.190830897051913 Q 0.805134157421008 -5.150451406611102 0.7772301971577674 -5.094553115030522 Q 0.7493262368945268 -5.038654823449943 0.7307058525940098 -4.97533593773248 Q 0.7118033412586364 -4.911057674958693 0.7054853647627126 -4.848811525093846 Q 0.6991673882667886 -4.786565375228999 0.7091300284736524 -4.733603164171411 Q 0.7190926686805162 -4.680640953113822 0.7486088169012217 -4.64277544117732 Q 0.7781249651219271 -4.604909929240819 0.828971949107162 -4.589957196393434 Q 0.8606313919658932 -4.5806470042431755 0.896297111288491 -4.5831879617795535 Q 0.9319628306110888 -4.585728919315931 0.9617589287994449 -4.601982919831184 Q 1.0076384450418168 -4.619761277161544 1.0336243768814755 -4.658503777680026 Q 1.0596103087211344 -4.6972462781985085 1.087203348694778 -4.766265291122578 L 1.1092690209902574 -4.759776369320883 Q 1.0824669526789072 -4.66863554896999 1.0669218981961377 -4.61222986414011 Q 1.0513768437133684 -4.55582417931023 1.0420105164317661 -4.51688484298751 L 1.0199448441362868 -4.523373764789206 Q 1.0282387984098076 -4.565755486350614 1.0222281137581377 -4.578988840801326 Q 1.016217429106468 -4.592222195252038 0.9911613553793255 -4.584997711230325 Q 0.9483291013890293 -4.570492608055553 0.9030134763718358 -4.56349302740375 Q 0.8576978513546423 -4.556493446751945 0.7953383426935051 -4.5748317040176065 Q 0.6936443747230352 -4.604737169712376 0.6295053612440045 -4.668419482405437 Q 0.5653663477649739 -4.7321017950984965 0.5460060471100273 -4.822224926194515 Q 0.5266457464550809 -4.912348057290533 0.5588082284287011 -5.021717041711605 Q 0.5904064563326088 -5.129167272020025 0.6577567833233355 -5.196918164665378 Q 0.7251071103140624 -5.264669057310732 0.8146375569301617 -5.287330679686939 Q 0.904168003546261 -5.3099923020631445 1.0039432174040805 -5.280651090438088 M 2.0153909955987563 -4.771564749953965 Q 1.9856381773995642 -4.729950211518392 1.9600913676566938 -4.690470969986143 Q 1.9345445579138234 -4.650991728453896 1.9216391741307084 -4.629580257943664 Q 1.9102824364015671 -4.61073816389466 1.9008145881954843 -4.593092772135151 Q 1.8913467399894013 -4.575447380375641 1.8849761838912662 -4.562940741538586 L 1.8652776310218533 -4.574813694619053 Q 1.8949363794065721 -4.655015681154624 1.899247690521451 -4.70962943946213 Q 1.9035590016363297 -4.764243197769637 1.8850218164445696 -4.799351925533063 Q 1.8664846312528094 -4.834460653296489 1.8270875255139836 -4.858206559457421 L 1.8073889726445707 -4.870079512537887 L 1.5126300070382208 -4.381041526084202 Q 1.4919813929852366 -4.3467831732678315 1.4889369859322232 -4.325266166373387 Q 1.4858925788792097 -4.303749159478943 1.5022357319650126 -4.286309224065817 Q 1.5185788850508155 -4.268869288652691 1.5557468577974982 -4.245299354373999 L 1.5454225507710062 -4.228170177965814 Q 1.5193885426896439 -4.245029312677286 1.4757971287898917 -4.272470862090913 Q 1.4322057148901397 -4.299912411504539 1.3842440209472213 -4.328820471178717 Q 1.3371387858247124 -4.35721231550157 1.2946560882733342 -4.381650408896067 Q 1.2521733907219559 -4.406088502290563 1.2259634107583537 -4.4207185040098915 L 1.2362877177848457 -4.437847680418077 Q 1.2753445800545868 -4.415474448428879 1.2983985327076097 -4.409168477681074 Q 1.3214524853606326 -4.402862506933268 1.3386284629503988 -4.415861960530855 Q 1.3558044405401648 -4.428861414128444 1.376453054593149 -4.463119766944814 L 1.6712120201994989 -4.9521577533985 L 1.6523699261504954 -4.963514491127641 Q 1.6129728204116696 -4.987260397288573 1.5732708058156004 -4.987254313415219 Q 1.5335687912195313 -4.9872482295418665 1.487977334990466 -4.958099145183808 Q 1.4423858787614003 -4.928950060825749 1.3830913151314421 -4.865442937414806 L 1.3633927622620292 -4.877315890495272 Q 1.3723326948213923 -4.888273883278352 1.383085231258089 -4.9051449520108745 Q 1.3938377676947857 -4.922016020743397 1.405194505423927 -4.940858114792401 Q 1.4180998892070422 -4.962269585302632 1.4410773224886848 -5.003297472888854 Q 1.4640547557703274 -5.044325360475076 1.4869559034062454 -5.090069621721247 Q 1.5258367937937465 -5.065467256739906 1.5719975841547262 -5.036477061272306 Q 1.6181583745157062 -5.007486865804705 1.6652636096382152 -4.979095021481852 Q 1.7123688447607242 -4.950703177158998 1.7500530328587316 -4.927989701700716 Q 1.788593679777148 -4.904760010891109 1.8352706854894525 -4.876626274243918 Q 1.881947691201757 -4.8484925375967265 1.9295691416755907 -4.820957152094283 Q 1.9771905921494244 -4.793421766591838 2.0153909955987563 -4.771564749953965 M 2.395994533179848 -4.432373337963154 L 2.3825667263645727 -4.417551259696876 Q 2.3581800107977653 -4.438294646688003 2.341587759013122 -4.444555411874064 Q 2.3249955072284787 -4.450816177060126 2.3095406566985437 -4.441203810280952 Q 2.2940858061686087 -4.4315914435017785 2.2692443635603494 -4.4041705987091655 L 1.9362347545415255 -4.036583057705489 Q 1.9120647022740302 -4.00990331682619 1.904055747663509 -3.992870799512339 Q 1.8960467930529874 -3.975838282198489 1.9038761136214268 -3.9606494132663856 Q 1.911705434189866 -3.9454605443342823 1.9340779787343823 -3.9224938456032143 L 1.9206501719191071 -3.9076717673369368 Q 1.9019831469411603 -3.927281514364186 1.8719335816656737 -3.955179070292157 Q 1.841884016390187 -3.9830766262201283 1.8107576520310047 -4.011275020532206 Q 1.7744435602786253 -4.04417314722963 1.743352052705718 -4.071665294414669 Q 1.7122605451328108 -4.099157441599708 1.6916490627051228 -4.1151313826329385 L 1.705076869520398 -4.129953460899215 Q 1.7301349754279691 -4.109951177821403 1.7460209800855735 -4.103655555849066 Q 1.7619069847431779 -4.097359933876729 1.7780680824001518 -4.107007157442178 Q 1.7942291800571257 -4.116654381007627 1.818399232324621 -4.143334121886926 L 2.151408841343445 -4.5109216628906035 Q 2.176250283951704 -4.5383425076832165 2.1839235433918436 -4.55500447304041 Q 2.191596802831983 -4.571666438397603 2.1837326254772687 -4.5875615544567445 Q 2.1758684481225545 -4.603456670515887 2.1535656171505884 -4.625010874992878 L 2.1669934239658635 -4.6398329532591545 Q 2.1855907353712603 -4.621635700485983 2.215675157433022 -4.593031897430973 Q 2.2457595794947833 -4.564428094375963 2.282073671247163 -4.531529967678539 Q 2.313200035606345 -4.503331573366461 2.3442566863929777 -4.476545673308461 Q 2.37531333717961 -4.449759773250461 2.395994533179848 -4.432373337963154 M 2.777083502427198 -3.9984440196891344 Q 2.8386101414863365 -3.9121278990274266 2.8497400907009407 -3.822431888912816 Q 2.860870039915546 -3.7327358787982052 2.8208580060036077 -3.6501811264078676 Q 2.7808459720916705 -3.56762637401753 2.687201124203969 -3.500875775038276 Q 2.595999185391598 -3.4358664960323937 2.501477931681743 -3.4237531729079524 Q 2.406956677971887 -3.4116398497835108 2.3219590165062183 -3.4499105637220766 Q 2.236961355040549 -3.4881812776606425 2.1771760359547825 -3.5720544892470185 Q 2.115649396895644 -3.6583706099087263 2.1045194476810396 -3.7480666200233372 Q 2.093389498466435 -3.8377626301379477 2.1338086838909276 -3.920607602523847 Q 2.1742278693154202 -4.003452574909747 2.267058414178012 -4.069622733897877 Q 2.3582603529903823 -4.13463201290376 2.4530718266958 -4.1463381845156455 Q 2.5478833004012174 -4.158044356127531 2.632300521875762 -4.120587945214076 Q 2.716717743350307 -4.083131534300621 2.777083502427198 -3.9984440196891344 M 2.760104288010714 -3.991253311949345 Q 2.727599648507773 -4.03685428135553 2.6668677527461586 -4.044528057297036 Q 2.6061358569845448 -4.052201833238542 2.5287460182005304 -4.024668892004735 Q 2.451356179416516 -3.9971359507709288 2.366668664805029 -3.936770191694038 Q 2.2803525441433212 -3.8752435526348994 2.2312309764458114 -3.808914286191353 Q 2.182109408748302 -3.7425850197478066 2.1727506697949996 -3.6824941385327343 Q 2.163391930841697 -3.6224032573176617 2.1941552503712662 -3.579245196986808 Q 2.2266598898742074 -3.5336442275806226 2.2873917856358217 -3.525970451639117 Q 2.3481236813974355 -3.5182966756976106 2.4259206716940054 -3.5461198369269793 Q 2.503717661990575 -3.5739429981563484 2.5875908735769513 -3.633728317242115 Q 2.6747212972637695 -3.6958353962923773 2.7234357134487244 -3.761874442740362 Q 2.772150129633679 -3.8279134891883464 2.7815088685869807 -3.8880043704034186 Q 2.7908676075402834 -3.9480952516184913 2.760104288010714 -3.991253311949345 M 3.31136789975541 -2.8360799916747723 L 3.2924988865205997 -2.829449732287346 Q 3.2781166688537553 -2.858314101585557 3.261019328072058 -2.8692654000562636 Q 3.2439219872903604 -2.8802166985269704 3.2166254980918243 -2.8764548269935175 Q 3.189329008893288 -2.8726929554600646 3.143099926468003 -2.85644881996087 L 2.6166544572167973 -2.671464583051673 Q 2.6136197522460822 -2.6831175039619306 2.6094758401289404 -2.6949106372336873 Q 2.605331928011799 -2.7067037705054435 2.5997472957788603 -2.719580566800439 L 2.9747685310289884 -3.311370287150048 L 2.612483476920632 -3.1840693069114607 Q 2.560593690524904 -3.165836093596038 2.5347509738197864 -3.150395757029141 Q 2.5089082571146695 -3.134955420462244 2.5039111397150253 -3.111470769779422 Q 2.4989140223153807 -3.0879861190966 2.5087833396590162 -3.044816725133161 L 2.489914326424206 -3.0381864657457345 Q 2.485502481329632 -3.056775054257547 2.4756973046099913 -3.0861877812561884 Q 2.4658921278903505 -3.11560050825483 2.456941277717325 -3.141073676121824 Q 2.4493164794217845 -3.1627730413418553 2.4408884428260027 -3.185250100738942 Q 2.432460406230221 -3.2077271601360287 2.4252692973967984 -3.222159344785134 L 2.444138310631609 -3.228789604172561 Q 2.4594639789601938 -3.2002567478437207 2.476089594411021 -3.1891396928883284 Q 2.4927152098618484 -3.178022637932936 2.5204834243912546 -3.1819502659510746 Q 2.548251638920661 -3.1858778939692134 2.5935372706842053 -3.201790516499037 L 3.018090068467436 -3.350971352716131 Q 3.0529977429518347 -3.36323733258287 3.0676848082007515 -3.374227788186441 Q 3.0823718734496683 -3.385218243790012 3.0830343387563546 -3.4029400140096437 Q 3.0836968040630413 -3.4206617842292757 3.074363352674271 -3.4502402677126027 L 3.0932323659090812 -3.4568705271000293 Q 3.0975931227572815 -3.4414438035428097 3.104605983360453 -3.4184694746916664 Q 3.1116188439636243 -3.3954951458405227 3.1192436422591645 -3.373795780620491 Q 3.127199953524076 -3.3511529647387186 3.1354366895119856 -3.3307285631497985 Q 3.1436734254998955 -3.310304161560879 3.1505841096103193 -3.2936535626189207 L 2.828853663106796 -2.7704064701352227 L 3.1241537202315763 -2.874170029548446 Q 3.1760435066273045 -2.8924032428638684 3.201886223332422 -2.9078435794307658 Q 3.2277289400375393 -2.9232839159976627 3.2331977827680536 -2.9469343231651703 Q 3.2386666254985683 -2.970584730332678 3.227853857493192 -3.013422611326746 L 3.2467228707280027 -3.020052870714172 Q 3.252078166484317 -3.001795795171731 3.2614116178730876 -2.972217311688404 Q 3.270745069261858 -2.9426388282050766 3.2796959194348836 -2.917165660338083 Q 3.2876522306997953 -2.8945228444563105 3.2963862361417617 -2.87268326687478 Q 3.3051202415837286 -2.8508436892932494 3.31136789975541 -2.8360799916747723 M 3.392998370710613 -1.7143881269866696 Q 3.342000802067346 -1.7184190068503318 3.2950017189360623 -1.7199474651646827 Q 3.248002635804779 -1.7214759234790338 3.223002640387686 -1.7214910610265473 Q 3.2010026444206447 -1.721504382068359 3.18100204258507 -1.7205164922896863 Q 3.1610014407494953 -1.7195286025110135 3.147000837814023 -1.7185370797209372 L 3.1470147643577353 -1.7415370755046624 Q 3.2310244369895753 -1.7574862104119564 3.28003926280364 -1.7819565363275807 Q 3.3290540886177054 -1.8064268622432051 3.3495746719243393 -1.8404144432214902 Q 3.3700952552309738 -1.874402024199775 3.3701231083183987 -1.9204020157672257 L 3.370137034862111 -1.943402011550951 L 2.799137139535714 -1.9437477531361593 Q 2.759137146868366 -1.943771973212181 2.739132003768537 -1.93528408480838 Q 2.7191268606687085 -1.9267961964045794 2.712612935316552 -1.9038001363832078 Q 2.706099009964395 -1.8808040763618359 2.705072368064088 -1.8368046899296533 L 2.685072371730414 -1.8368167999676641 Q 2.6860911421060143 -1.8678161887829585 2.687122325270576 -1.919315573840269 Q 2.6881535084351373 -1.9708149588975794 2.6881874165415676 -2.0268149486318667 Q 2.688220719146097 -2.0818149385494706 2.68725038892254 -2.130815535068873 Q 2.6862800586989826 -2.179816131588275 2.685298223939315 -2.209816731590687 L 2.705298220272989 -2.209804621552676 Q 2.7062709725041487 -2.164804024300009 2.7127570447688805 -2.1418000927539302 Q 2.719243117033612 -2.118796161207851 2.739238269352082 -2.110784052636371 Q 2.759233421670552 -2.1027719440648904 2.7992334143379 -2.1027477239888688 L 3.370233309664297 -2.10240198240366 L 3.370246630706109 -2.124401978370702 Q 3.3702744837935334 -2.1704019699381525 3.349795074616136 -2.2044143764943596 Q 3.3293156654387386 -2.2384267830505666 3.2808302063751915 -2.262456145493152 Q 3.232344747311645 -2.2864855079357373 3.1473556619277394 -2.3045369722975897 L 3.147369588471452 -2.327536968081315 Q 3.1613683749012225 -2.32552849142134 3.1813680684839465 -2.3250163814749873 Q 3.2013677620666705 -2.324504271528635 3.223367758033712 -2.324490950486823 Q 3.248367753450805 -2.3244758129393093 3.29536865308779 -2.3259473540750095 Q 3.342369552724775 -2.3274188952107098 3.393371965383246 -2.331388013880517 Q 3.3923441124791376 -2.285388627814967 3.391311112808874 -2.2308892433076055 Q 3.390278113138611 -2.176389858800244 3.390244810534081 -2.1213898688826403 Q 3.3902115079295516 -2.0663898789650363 3.390184865845928 -2.022389887030953 Q 3.3901576182604036 -1.9773898952801863 3.390124618406824 -1.922889905270924 Q 3.3900916185532446 -1.868389915261662 3.391058315765399 -1.8133893198421576 Q 3.3920250129775527 -1.758388724422653 3.392998370710613 -1.7143881269866696 M 3.280497415466864 -1.1039660121160437 Q 3.2518757174922515 -1.0019032941184807 3.1890066433141673 -0.9369669444213307 Q 3.126137569136083 -0.8720305947241807 3.036746969988095 -0.8514012276964782 Q 2.9473563708401063 -0.830771860668776 2.8366279503710525 -0.8618237028110444 Q 2.728788097392495 -0.8920654968974275 2.6600589284968565 -0.9580753548196709 Q 2.5913297596012175 -1.0240852127419142 2.567811825083018 -1.1142858599457879 Q 2.544293890564819 -1.2044865071496615 2.5721055404835464 -1.3036606576567276 Q 2.600727238458159 -1.4057233756542904 2.6635963126362427 -1.4706597253514404 Q 2.726465386814327 -1.5355960750485904 2.8163374138773984 -1.5560904340669786 Q 2.9062094409404695 -1.5765847930853667 3.015975005579358 -1.5458029669617268 Q 3.123814858557915 -1.5155611728753435 3.1924090194442396 -1.4490698870380174 Q 3.2610031803305644 -1.382578601200691 3.284791130867392 -1.2933408098269832 Q 3.3085790814042197 -1.2041030184532753 3.280497415466864 -1.1039660121160437 M 3.2642460745983954 -1.112677723772018 Q 3.279366971641587 -1.1665976502612965 3.2472441240572105 -1.2187068880514516 Q 3.215121276472834 -1.2708161258416064 3.145131026308884 -1.3138116474919799 Q 3.0751407761449343 -1.356807169142353 2.975003769807703 -1.3848888350797088 Q 2.8729410518101397 -1.4135105330543216 2.7904714606671086 -1.4101539668474277 Q 2.7080018695240775 -1.4067974006405337 2.6553347999316994 -1.376388852820034 Q 2.6026677303393213 -1.3459803049995345 2.588356881352015 -1.294948946000753 Q 2.5732359843088233 -1.2410290195114746 2.6053588318932 -1.1889197817213195 Q 2.637481679477576 -1.1368105439311647 2.707953357556609 -1.093680014271477 Q 2.7784250356356415 -1.0505494846117895 2.8775991861427075 -1.0227378346930622 Q 2.980624759970436 -0.993846120699821 3.0626129231983845 -0.9973376949160293 Q 3.144601086426333 -1.0008292691322374 3.197268156018711 -1.031237816952737 Q 3.249935225611089 -1.0616463647732366 3.2642460745983954 -1.112677723772018 M 2.869771147580327 -0.1877605209063944 Q 2.812748671136146 -0.09840484296608232 2.733733755770619 -0.05451984382311048 Q 2.654718840405092 -0.010634844680138755 2.5631893966528363 -0.016848613778090438 Q 2.4716599529005805 -0.02306238287604212 2.37471747211628 -0.08492639033906912 Q 2.2803039256133086 -0.14517655412914765 2.2337014208303083 -0.2282981911916504 Q 2.1870989160473076 -0.31141982825415304 2.19078375086393 -0.4045631156793573 Q 2.1944685856805517 -0.4977064031045615 2.249877218451785 -0.584533146763544 Q 2.306899694895966 -0.6738888247038561 2.385914610261493 -0.7177738238468279 Q 2.46492952562702 -0.7616588229897996 2.5568804584261637 -0.7551760799463565 Q 2.6488313912253076 -0.7486933369029134 2.744930893915832 -0.6873672773308692 Q 2.8393444404188033 -0.6271171135407907 2.8856779712563125 -0.5435739874313998 Q 2.9320115020938213 -0.4600308613220088 2.928864615168182 -0.36773055199058113 Q 2.925717728242543 -0.2754302426591534 2.869771147580327 -0.1877605209063944 M 2.856749333456281 -0.20081549531919163 Q 2.88687441535132 -0.24802226857067722 2.8712652386071644 -0.30721351455663126 Q 2.8556560618630087 -0.3664047605425851 2.801164620001777 -0.4278696510402017 Q 2.7466731781405453 -0.4893345415378183 2.659003456387786 -0.545281122200034 Q 2.5696477784474743 -0.6023035986442156 2.489756326865954 -0.6230365666950672 Q 2.409864875284434 -0.643769534745919 2.350637573041178 -0.6299627730334109 Q 2.291410270797922 -0.6161560113209028 2.262899032575831 -0.5714781723507467 Q 2.2327739506807918 -0.5242713990992611 2.2483831274249475 -0.46508015311330714 Q 2.2639923041691032 -0.40588890712735326 2.3189052350772235 -0.34415504268424524 Q 2.3738181659853432 -0.2824211782411372 2.460644909644326 -0.22701254546990435 Q 2.5508435656784143 -0.16945212113474006 2.6303135282130463 -0.1489881270293797 Q 2.709783490747678 -0.12852413292401943 2.769010792990934 -0.14233089463652748 Q 2.82823809523419 -0.15613765634903554 2.856749333456281 -0.20081549531919163 M 2.261175608757317 0.5059247485369042 L 2.2476589352817045 0.4911836651929412 Q 2.2720429432926608 0.46746826611720116 2.280548472339054 0.4508503247392519 Q 2.2890540013854475 0.43423238336130265 2.2816492370974752 0.4172789333926512 Q 2.274244472809503 0.40032548342399976 2.249238626879619 0.3730544792376682 L 1.905915120599052 -0.0013690376989921038 Q 1.8849642767118522 -0.024217716882134727 1.8715100278527508 -0.03223227785809407 Q 1.8580557789936496 -0.040246838834053444 1.8447263793675712 -0.03480835507400551 Q 1.831396979741493 -0.029369871313957546 1.8114965172271429 -0.01112236212188017 L 1.7753808630344337 0.021993487893371355 Q 1.7414763713433188 0.053081836887280964 1.732760182939246 0.09906311633560333 Q 1.7240439945351735 0.14504439578392564 1.7393787137975432 0.19949938990883864 Q 1.7547134330599128 0.2539543840337516 1.791947913857454 0.309358295806636 L 1.7749956680118963 0.32490247030359076 Q 1.754228485604949 0.2978151275975117 1.7177334672207942 0.2580142025688116 Q 1.7021892927238393 0.24106195672325414 1.6717155569102928 0.20930740704031625 Q 1.6412418210967465 0.17755285735737825 1.6057923675930654 0.14629047986796845 Q 1.6447337974677323 0.11329707083955193 1.6922431810053042 0.0704122428011898 Q 1.7397525645428762 0.027527414762827718 1.7766052729027837 -0.006264268926204519 Q 1.8016651145875209 -0.02924261383474641 1.8429401479506173 -0.06708929956646245 Q 1.8842151813137136 -0.10493598529817849 1.9303116770103068 -0.14788203382995813 Q 1.9764081727068998 -0.19082808236173773 2.0148574303880387 -0.22879720908028878 L 2.028374103863652 -0.2140561257363258 Q 2.006140037860872 -0.1909553398409489 1.9984021732283856 -0.17571967605726968 Q 1.990664308595899 -0.1604840122735905 1.9987755168043608 -0.14349995205823024 Q 2.0068867250128224 -0.12651589184287002 2.0312167372689256 -0.0999819418237366 L 2.366430239464125 0.26559692510654587 Q 2.391436085394009 0.2928679292928774 2.40731697260476 0.30204929201305153 Q 2.423197859815511 0.31123065473322553 2.4397521724538547 0.3048702512026329 Q 2.456306485092198 0.29850984767204025 2.4798309979491213 0.2782960579520385 L 2.4933476714247345 0.29303714129600145 Q 2.474245483571 0.3091959289733194 2.442244847791298 0.3371818059417986 Q 2.410244212011596 0.3651676829102779 2.3748656119860847 0.39760769925174877 Q 2.342435228629366 0.4273443808980971 2.311786260197225 0.4568043662009724 Q 2.2811372917650847 0.48626435150384806 2.261175608757317 0.5059247485369042" fill="#574848" fill-rule="nonzero"></path></g><g transform="matrix(1,0,0,1,0,0)"><path d=" M -0.6630189208984375 0.8808274392630251 Q -0.6300189208984375 0.8808274392630251 -0.6087689208984375 0.890577439263025 Q -0.5875189208984375 0.900327439263025 -0.5710189208984375 0.9133274392630251 Q -0.5610189208984375 0.9208274392630251 -0.5557689208984375 0.9150774392630251 Q -0.5505189208984376 0.9093274392630251 -0.5485189208984376 0.8878274392630251 L -0.5370189208984375 0.8878274392630251 Q -0.5380189208984375 0.9063274392630251 -0.5385189208984376 0.9328274392630251 Q -0.5390189208984375 0.9593274392630251 -0.5390189208984375 1.002827439263025 L -0.5505189208984376 1.002827439263025 Q -0.5540189208984375 0.9813274392630251 -0.5570189208984375 0.9685774392630251 Q -0.5600189208984375 0.955827439263025 -0.5642689208984375 0.9468274392630252 Q -0.5685189208984375 0.937827439263025 -0.5755189208984375 0.9288274392630251 Q -0.5910189208984375 0.9083274392630251 -0.6145189208984375 0.8990774392630251 Q -0.6380189208984375 0.8898274392630251 -0.6640189208984375 0.8898274392630251 Q -0.6885189208984375 0.8898274392630251 -0.7082689208984375 0.9020774392630251 Q -0.7280189208984376 0.9143274392630251 -0.7422689208984375 0.9373274392630251 Q -0.7565189208984375 0.960327439263025 -0.7642689208984375 0.9928274392630251 Q -0.7720189208984375 1.0253274392630252 -0.7720189208984375 1.0658274392630251 Q -0.7720189208984375 1.107827439263025 -0.7635189208984375 1.140077439263025 Q -0.7550189208984375 1.1723274392630252 -0.7397689208984375 1.194327439263025 Q -0.7245189208984375 1.216327439263025 -0.7037689208984375 1.227577439263025 Q -0.6830189208984375 1.2388274392630252 -0.6590189208984375 1.2388274392630252 Q -0.6365189208984375 1.2388274392630252 -0.6120189208984375 1.229827439263025 Q -0.5875189208984375 1.2208274392630252 -0.5735189208984375 1.2008274392630252 Q -0.5625189208984375 1.186327439263025 -0.5582689208984375 1.169327439263025 Q -0.5540189208984375 1.1523274392630252 -0.5505189208984376 1.1218274392630252 L -0.5390189208984375 1.1218274392630252 Q -0.5390189208984375 1.167327439263025 -0.5385189208984376 1.195077439263025 Q -0.5380189208984375 1.2228274392630252 -0.5370189208984375 1.241827439263025 L -0.5485189208984376 1.241827439263025 Q -0.5505189208984376 1.220327439263025 -0.5552689208984375 1.2148274392630252 Q -0.5600189208984375 1.209327439263025 -0.5710189208984375 1.216327439263025 Q -0.5895189208984375 1.2293274392630251 -0.6102689208984375 1.239077439263025 Q -0.6310189208984375 1.248827439263025 -0.6635189208984376 1.248827439263025 Q -0.7110189208984374 1.248827439263025 -0.7467689208984375 1.2273274392630251 Q -0.7825189208984376 1.205827439263025 -0.8022689208984375 1.165327439263025 Q -0.8220189208984375 1.124827439263025 -0.8220189208984375 1.0678274392630251 Q -0.8220189208984375 1.011827439263025 -0.8015189208984375 0.9698274392630251 Q -0.7810189208984375 0.927827439263025 -0.7452689208984375 0.9043274392630251 Q -0.7095189208984375 0.8808274392630251 -0.6630189208984375 0.8808274392630251 M -0.31852478027343745 0.8808274392630251 Q -0.27102478027343746 0.8808274392630251 -0.23527478027343746 0.902327439263025 Q -0.19952478027343745 0.923827439263025 -0.17977478027343746 0.9640774392630251 Q -0.16002478027343742 1.004327439263025 -0.16002478027343742 1.0618274392630251 Q -0.16002478027343742 1.1178274392630252 -0.18027478027343746 1.159827439263025 Q -0.20052478027343745 1.201827439263025 -0.23652478027343743 1.2253274392630251 Q -0.2725247802734374 1.248827439263025 -0.31902478027343745 1.248827439263025 Q -0.36652478027343743 1.248827439263025 -0.40227478027343744 1.2273274392630251 Q -0.43802478027343744 1.205827439263025 -0.45777478027343743 1.165327439263025 Q -0.4775247802734374 1.124827439263025 -0.4775247802734374 1.0678274392630251 Q -0.4775247802734374 1.011827439263025 -0.45702478027343746 0.9698274392630251 Q -0.43652478027343744 0.927827439263025 -0.40077478027343744 0.9043274392630251 Q -0.36502478027343743 0.8808274392630251 -0.31852478027343745 0.8808274392630251 M -0.32052478027343745 0.8898274392630251 Q -0.3530247802734374 0.8898274392630251 -0.37702478027343744 0.9123274392630251 Q -0.40102478027343746 0.9348274392630251 -0.41427478027343745 0.974327439263025 Q -0.42752478027343743 1.013827439263025 -0.42752478027343743 1.0658274392630251 Q -0.42752478027343743 1.118827439263025 -0.41277478027343745 1.158077439263025 Q -0.39802478027343746 1.197327439263025 -0.37277478027343747 1.218577439263025 Q -0.3475247802734375 1.239827439263025 -0.31702478027343745 1.239827439263025 Q -0.2845247802734374 1.239827439263025 -0.26052478027343745 1.2173274392630251 Q -0.23652478027343743 1.1948274392630251 -0.22327478027343745 1.155077439263025 Q -0.21002478027343746 1.115327439263025 -0.21002478027343746 1.0638274392630251 Q -0.21002478027343746 1.010327439263025 -0.22477478027343745 0.9713274392630251 Q -0.23952478027343743 0.9323274392630251 -0.2645247802734374 0.9110774392630251 Q -0.2895247802734374 0.8898274392630251 -0.32052478027343745 0.8898274392630251 M 0.011491333007812549 0.8878274392630251 L 0.011491333007812549 0.897827439263025 Q -0.005508666992187439 0.898327439263025 -0.014258666992187446 0.9015774392630251 Q -0.02300866699218744 0.9048274392630251 -0.026008666992187443 0.9135774392630251 Q -0.029008666992187446 0.9223274392630251 -0.029008666992187446 0.9408274392630251 L -0.029008666992187446 1.1888274392630251 Q -0.029008666992187446 1.2068274392630252 -0.026008666992187443 1.215827439263025 Q -0.02300866699218744 1.2248274392630252 -0.014258666992187446 1.227577439263025 Q -0.005508666992187439 1.230327439263025 0.011491333007812549 1.230327439263025 L 0.04799133300781255 1.230327439263025 Q 0.07149133300781255 1.230327439263025 0.08624133300781256 1.2253274392630251 Q 0.10099133300781257 1.220327439263025 0.10974133300781255 1.209577439263025 Q 0.11849133300781256 1.1988274392630252 0.12299133300781256 1.1808274392630251 Q 0.12749133300781257 1.1628274392630251 0.12999133300781257 1.136827439263025 L 0.14149133300781258 1.136827439263025 Q 0.13999133300781258 1.1523274392630252 0.13999133300781258 1.177827439263025 Q 0.13999133300781258 1.187327439263025 0.14074133300781255 1.205077439263025 Q 0.14149133300781258 1.2228274392630252 0.14349133300781258 1.241827439263025 Q 0.11799133300781256 1.2408274392630252 0.08599133300781256 1.240577439263025 Q 0.05399133300781256 1.240327439263025 0.028991333007812564 1.240327439263025 Q 0.017991333007812554 1.240327439263025 0.0007413330078125668 1.240327439263025 Q -0.01650866699218745 1.240327439263025 -0.03650866699218744 1.240577439263025 Q -0.05650866699218744 1.2408274392630252 -0.07700866699218745 1.241077439263025 Q -0.09750866699218744 1.2413274392630251 -0.11600866699218744 1.241827439263025 L -0.11600866699218744 1.231827439263025 Q -0.09900866699218744 1.2308274392630252 -0.09025866699218744 1.227827439263025 Q -0.08150866699218745 1.2248274392630252 -0.07850866699218745 1.215827439263025 Q -0.07550866699218745 1.2068274392630252 -0.07550866699218745 1.1888274392630251 L -0.07550866699218745 0.9408274392630251 Q -0.07550866699218745 0.9223274392630251 -0.07850866699218745 0.9135774392630251 Q -0.08150866699218745 0.9048274392630251 -0.09025866699218744 0.9015774392630251 Q -0.09900866699218744 0.898327439263025 -0.11600866699218744 0.897827439263025 L -0.11600866699218744 0.8878274392630251 Q -0.10550866699218744 0.8883274392630252 -0.08850866699218744 0.8888274392630251 Q -0.07150866699218744 0.889327439263025 -0.05200866699218744 0.889327439263025 Q -0.03450866699218744 0.889327439263025 -0.017258666992187435 0.8888274392630251 Q -0.00000866699218743383 0.8883274392630252 0.011491333007812549 0.8878274392630251 M 0.34299768066406255 0.8808274392630251 Q 0.39049768066406254 0.8808274392630251 0.42624768066406254 0.902327439263025 Q 0.46199768066406255 0.923827439263025 0.48174768066406254 0.9640774392630251 Q 0.5014976806640625 1.004327439263025 0.5014976806640625 1.0618274392630251 Q 0.5014976806640625 1.1178274392630252 0.48124768066406254 1.159827439263025 Q 0.46099768066406255 1.201827439263025 0.42499768066406257 1.2253274392630251 Q 0.3889976806640626 1.248827439263025 0.34249768066406255 1.248827439263025 Q 0.29499768066406257 1.248827439263025 0.25924768066406256 1.2273274392630251 Q 0.22349768066406256 1.205827439263025 0.20374768066406257 1.165327439263025 Q 0.18399768066406255 1.124827439263025 0.18399768066406255 1.0678274392630251 Q 0.18399768066406255 1.011827439263025 0.20449768066406254 0.9698274392630251 Q 0.22499768066406256 0.927827439263025 0.26074768066406256 0.9043274392630251 Q 0.29649768066406257 0.8808274392630251 0.34299768066406255 0.8808274392630251 M 0.34099768066406255 0.8898274392630251 Q 0.3084976806640626 0.8898274392630251 0.28449768066406256 0.9123274392630251 Q 0.26049768066406254 0.9348274392630251 0.24724768066406255 0.974327439263025 Q 0.23399768066406257 1.013827439263025 0.23399768066406257 1.0658274392630251 Q 0.23399768066406257 1.118827439263025 0.24874768066406255 1.158077439263025 Q 0.26349768066406254 1.197327439263025 0.28874768066406253 1.218577439263025 Q 0.31399768066406253 1.239827439263025 0.34449768066406256 1.239827439263025 Q 0.3769976806640626 1.239827439263025 0.40099768066406255 1.2173274392630251 Q 0.42499768066406257 1.1948274392630251 0.43824768066406256 1.155077439263025 Q 0.45149768066406254 1.115327439263025 0.45149768066406254 1.0638274392630251 Q 0.45149768066406254 1.010327439263025 0.43674768066406255 0.9713274392630251 Q 0.42199768066406257 0.9323274392630251 0.3969976806640626 0.9110774392630251 Q 0.3719976806640626 0.8898274392630251 0.34099768066406255 0.8898274392630251 M 0.5455137939453126 0.8878274392630251 Q 0.5560137939453126 0.8883274392630252 0.5730137939453126 0.8888274392630251 Q 0.5900137939453126 0.889327439263025 0.6065137939453126 0.889327439263025 Q 0.6300137939453127 0.889327439263025 0.6515137939453126 0.8888274392630251 Q 0.6730137939453126 0.8883274392630252 0.6820137939453126 0.8883274392630252 Q 0.7225137939453126 0.8883274392630252 0.7492637939453126 0.899827439263025 Q 0.7760137939453127 0.9113274392630251 0.7892637939453127 0.931077439263025 Q 0.8025137939453126 0.9508274392630252 0.8025137939453126 0.9753274392630251 Q 0.8025137939453126 0.990327439263025 0.7965137939453126 1.0073274392630251 Q 0.7905137939453126 1.024327439263025 0.7757637939453126 1.0393274392630252 Q 0.7610137939453127 1.054327439263025 0.7355137939453126 1.064077439263025 Q 0.7100137939453126 1.0738274392630252 0.6710137939453126 1.0738274392630252 L 0.6230137939453126 1.0738274392630252 L 0.6230137939453126 1.0638274392630251 L 0.6660137939453126 1.0638274392630251 Q 0.7015137939453127 1.0638274392630251 0.7202637939453126 1.0525774392630252 Q 0.7390137939453126 1.041327439263025 0.7457637939453126 1.0225774392630251 Q 0.7525137939453126 1.003827439263025 0.7525137939453126 0.9808274392630251 Q 0.7525137939453126 0.9413274392630251 0.7337637939453125 0.9195774392630252 Q 0.7150137939453126 0.897827439263025 0.6695137939453126 0.897827439263025 Q 0.6465137939453126 0.897827439263025 0.6395137939453126 0.9063274392630251 Q 0.6325137939453126 0.9148274392630251 0.6325137939453126 0.9408274392630251 L 0.6325137939453126 1.1888274392630251 Q 0.6325137939453126 1.2068274392630252 0.6355137939453126 1.215827439263025 Q 0.6385137939453126 1.2248274392630252 0.6472637939453126 1.227827439263025 Q 0.6560137939453126 1.2308274392630252 0.6730137939453126 1.231827439263025 L 0.6730137939453126 1.241827439263025 Q 0.6615137939453126 1.2408274392630252 0.6442637939453126 1.240577439263025 Q 0.6270137939453126 1.240327439263025 0.6095137939453126 1.240327439263025 Q 0.5900137939453126 1.240327439263025 0.5730137939453126 1.240577439263025 Q 0.5560137939453126 1.2408274392630252 0.5455137939453126 1.241827439263025 L 0.5455137939453126 1.231827439263025 Q 0.5625137939453126 1.2308274392630252 0.5712637939453126 1.227827439263025 Q 0.5800137939453126 1.2248274392630252 0.5830137939453126 1.215827439263025 Q 0.5860137939453126 1.2068274392630252 0.5860137939453126 1.1888274392630251 L 0.5860137939453126 0.9408274392630251 Q 0.5860137939453126 0.9223274392630251 0.5830137939453126 0.9135774392630251 Q 0.5800137939453126 0.9048274392630251 0.5712637939453126 0.9015774392630251 Q 0.5625137939453126 0.898327439263025 0.5455137939453126 0.897827439263025 L 0.5455137939453126 0.8878274392630251 M 0.6250137939453126 1.065327439263025 Q 0.6520137939453126 1.066327439263025 0.6675137939453126 1.067577439263025 Q 0.6830137939453126 1.068827439263025 0.6927637939453126 1.0698274392630251 Q 0.7025137939453125 1.070827439263025 0.7115137939453127 1.072327439263025 Q 0.7450137939453126 1.0778274392630252 0.7597637939453126 1.092577439263025 Q 0.7745137939453126 1.107327439263025 0.7815137939453126 1.1383274392630252 L 0.7940137939453127 1.189327439263025 Q 0.7990137939453126 1.211327439263025 0.8042637939453126 1.221077439263025 Q 0.8095137939453126 1.2308274392630252 0.8205137939453127 1.230327439263025 Q 0.8290137939453126 1.229827439263025 0.8347637939453126 1.2248274392630252 Q 0.8405137939453127 1.219827439263025 0.8470137939453126 1.211327439263025 L 0.8545137939453127 1.2168274392630252 Q 0.8440137939453126 1.232327439263025 0.8327637939453126 1.240577439263025 Q 0.8215137939453125 1.248827439263025 0.8010137939453126 1.248827439263025 Q 0.7825137939453126 1.248827439263025 0.7685137939453126 1.237827439263025 Q 0.7545137939453126 1.2268274392630252 0.7475137939453126 1.1948274392630251 L 0.7365137939453126 1.144827439263025 Q 0.7320137939453126 1.123327439263025 0.7262637939453126 1.107577439263025 Q 0.7205137939453126 1.0918274392630252 0.7102637939453126 1.082827439263025 Q 0.7000137939453126 1.0738274392630252 0.6800137939453126 1.0738274392630252 L 0.6260137939453126 1.0738274392630252 L 0.6250137939453126 1.065327439263025" fill="#b9625d" fill-rule="nonzero"></path></g><g transform="matrix(1,0,0,1,0,0)"><g transform="matrix(1,0,0,1,0,0)" clip-path="url(#SvgjsClipPath80887)"><g clip-path="url(#SvgjsClipPath8088549ce2bf8-c631-4a16-a102-396f58a12895)"><path d=" M 0.09667750791437424 -0.5082275865827426 C 0.9967721094352431 -0.5082275865827426 1.7264365535497728 -1.2429986898650842 1.7264365535497728 -2.1496143849275837 C 1.7264365535497728 -3.0562300799900832 0.9967721094352431 -3.791019552550007 0.09667750791437424 -3.791019552550007 C -0.8034170936064946 -3.791019552550007 -1.5330815377210243 -3.056138233602173 -1.5330815377210243 -2.1496143849275837 C -1.5330815377210243 -1.2430905362529945 -0.8033987243289126 -0.5082275865827426 0.09667750791437424 -0.5082275865827426 Z M 0.09667750791437424 -0.4525870447866871 C 1.0272834794990424 -0.4525870447866871 1.7816729712390234 -1.2123771041357927 1.7816729712390234 -2.1496143849275837 C 1.7816729712390234 -3.086851665719375 1.0272834794990424 -3.8466600943460625 0.09667750791437424 -3.8466600943460625 C -0.8339284636702938 -3.8466600943460625 -1.5883179554102744 -3.086870034996957 -1.5883179554102744 -2.1496143849275837 C -1.5883179554102744 -1.2123587348582106 -0.8339652022254579 -0.4525870447866871 0.09667750791437424 -0.4525870447866871 Z" fill="#b9625d" transform="matrix(1,0,0,1,0,0)" fill-rule="evenodd"></path></g><g clip-path="url(#SvgjsClipPath8088549ce2bf8-c631-4a16-a102-396f58a12895)"><path d=" M -0.1519322948812062 -0.4525870447866871 C 0.7481623066396623 -0.4525870447866871 1.4778267507541925 -1.1873581480690292 1.4778267507541925 -2.0939738431315287 C 1.4778267507541925 -3.000589538194028 0.748162306639663 -3.735379010753952 -0.1519322948812062 -3.735379010753952 C -1.0520268964020754 -3.735379010753952 -1.7816729712390227 -3.000497691806118 -1.7816729712390227 -2.0939738431315287 C -1.7816729712390227 -1.1874499944569392 -1.052008527124493 -0.4525870447866871 -0.1519322948812062 -0.4525870447866871 Z M -0.1519322948812062 -0.39694650299063206 C 0.7786736767034614 -0.39694650299063206 1.5330815377210243 -1.1567365623397374 1.5330815377210243 -2.0939738431315287 C 1.5330815377210243 -3.0312111239233195 0.7786736767034614 -3.791019552550007 -0.1519322948812062 -3.791019552550007 C -1.082538266465874 -3.791019552550007 -1.8369277582058547 -3.0312294932009016 -1.8369277582058547 -2.0939738431315287 C -1.8369277582058547 -1.156718193062155 -1.0825198971882921 -0.3969097644354673 -0.1519322948812062 -0.3969097644354673 Z" fill="#b9625d" transform="matrix(1,0,0,1,0,0)" fill-rule="evenodd"></path></g><g clip-path="url(#SvgjsClipPath8088549ce2bf8-c631-4a16-a102-396f58a12895)"><path d=" M 0.15193229488120652 -0.2578359638617025 C 1.0520268964020754 -0.2578359638617025 1.7816729712390234 -0.9927172828095365 1.7816729712390234 -1.8992411314841255 C 1.7816729712390234 -2.8057649801587146 1.0520085271244932 -3.5406279298289673 0.15193229488120652 -3.5406279298289673 C -0.7481439373620806 -3.5406279298289673 -1.477826750754192 -2.8057466108811333 -1.477826750754192 -1.8992411314841258 C -1.477826750754192 -0.9927356520871189 -0.7481623066396625 -0.2578359638617025 0.15193229488120652 -0.2578359638617025 Z M 0.15193229488120652 -0.202195422065647 C 1.0825198971882921 -0.202195422065647 1.8369277582058547 -0.9619854814147528 1.8369277582058547 -1.8992411314841258 C 1.8369277582058547 -2.836496781553499 1.0825198971882926 -3.5962868409026045 0.15193229488120652 -3.5962868409026045 C -0.77865530742588 -3.5962868409026045 -1.5330815377210243 -2.836478412275917 -1.5330815377210243 -1.8992411314841258 C -1.5330815377210243 -0.9620038506923347 -0.7786736767034619 -0.202195422065647 0.15193229488120652 -0.202195422065647 Z" fill="#b9625d" transform="matrix(1,0,0,1,0,0)" fill-rule="evenodd"></path></g><path d=" M -0.26478237956120443 -2.199668775035982 C -0.28684757785797144 -2.2311904868885066 -0.30674565846487734 -2.2535512012338907 -0.32447662138192224 -2.2667509180721357 C -0.34220758429896725 -2.27995063491038 -0.3613176221095601 -2.2894071484661374 -0.38180673481370087 -2.295120458739407 C -0.40229584751784175 -2.3008337690126774 -0.42377001371737383 -2.3036904241493126 -0.4462292334122975 -2.3036904241493126 C -0.479327030857448 -2.3036904241493126 -0.5100606999136592 -2.296302522933877 -0.5384302405809311 -2.281526720503006 C -0.566799781248203 -2.2667509180721357 -0.5913276132834484 -2.246655826766151 -0.6120137366866676 -2.2212414465850534 C -0.6326998600898867 -2.1958270664039556 -0.6489532427638445 -2.1662754615422144 -0.6607738847085411 -2.1325866319998292 C -0.6725945266532377 -2.0988978024574436 -0.6785048476255859 -2.063140360574736 -0.6785048476255859 -2.0253143063517074 C -0.6785048476255859 -1.9870942307305215 -0.6726930320027769 -1.9511397781487358 -0.6610694007571585 -1.9174509486063505 C -0.6494457695115401 -1.883762119063965 -0.6333893975366606 -1.8543090195517626 -0.6129002848325198 -1.8290916500697432 C -0.5924111721283789 -1.803874280587724 -0.5679818454426726 -1.7838776946312787 -0.5396123047754007 -1.769101892200408 C -0.5112427641081289 -1.7543260897695372 -0.48011507365376116 -1.7469381885541018 -0.4462292334122975 -1.7469381885541018 C -0.42258794952290424 -1.7469381885541018 -0.40052275122613723 -1.7507798971861284 -0.38003363852199645 -1.7584633144501811 C -0.35954452581785556 -1.7661467317142339 -0.34092701475495835 -1.7762927827167652 -0.3241811053333048 -1.7889014674577748 C -0.30743519591165136 -1.8015101521987844 -0.29275789883031966 -1.8159904385810377 -0.28014921408931004 -1.8323423266045349 C -0.2675405293483003 -1.8486942146280319 -0.25768999439438633 -1.865735640098303 -0.25059760922756835 -1.8834666030153477 L -0.0602852739179528 -1.830273714264213 C -0.07249993726080606 -1.7916596172448707 -0.09042791087692925 -1.7559021753621635 -0.11406919476632238 -1.723001388616091 C -0.13771047865571573 -1.6901006018700189 -0.1661785246725267 -1.661632555853208 -0.1994733328167556 -1.637597250565658 C -0.23276814096098442 -1.6135619452781083 -0.2702001737858569 -1.5946489181665937 -0.31176943129137336 -1.5808581692311143 C -0.3533386887968898 -1.567067420295635 -0.39815862283719794 -1.5601720458278951 -0.4462292334122975 -1.5601720458278951 C -0.4868134374224225 -1.5601720458278951 -0.5256245451408431 -1.565688345402087 -0.5626625565675591 -1.5767209445504704 C -0.5997005679942753 -1.5877535436988541 -0.6342759456825129 -1.603317388926038 -0.6663886896322719 -1.623412480232022 C -0.6985014335820312 -1.6435075715380065 -0.7276590170456161 -1.6677398875246345 -0.753861440023027 -1.6961094281919062 C -0.7800638630004378 -1.7244789688591782 -0.8024245773458223 -1.7559021753621633 -0.8209435830591802 -1.7903790477008619 C -0.8394625887725383 -1.8248559200395602 -0.8538443698052525 -1.8618939314662764 -0.8640889261573229 -1.90149308198101 C -0.8743334825093934 -1.9410922324957438 -0.8794557606854285 -1.9823659739526427 -0.8794557606854285 -2.0253143063517074 C -0.8794557606854285 -2.0895397942512255 -0.8682261508379667 -2.149726562819639 -0.8457669311430431 -2.205874612056948 C -0.8233077114481195 -2.2620226612942567 -0.7925740423919083 -2.3110783253647478 -0.7535659239744095 -2.353041604268421 C -0.7145578055569106 -2.395004883172094 -0.6687528180212113 -2.4281026806172443 -0.6161509613673113 -2.4523349966038723 C -0.5635491047134114 -2.4765673125905003 -0.5069085287284067 -2.4886834705838146 -0.4462292334122975 -2.4886834705838146 C -0.39776460143904135 -2.4886834705838146 -0.356983386729838 -2.482674644261927 -0.32388558928468747 -2.4706569916181524 C -0.29078779183953696 -2.4586393389743773 -0.2543408125100557 -2.434899549735445 -0.21454465129624378 -2.3994376239013553 L -0.08215346151564162 -2.3994376239013553 L -0.08215346151564162 -2.199668775035982 L -0.26478237956120443 -2.199668775035982" fill="#b9625d" transform="matrix(1,0,0,1,0,0)" fill-rule="nonzero"></path><path d=" M 0.2647823795612043 -2.199668775035982 C 0.2868475778579713 -2.2311904868885066 0.3067456584648771 -2.2535512012338907 0.3244766213819221 -2.2667509180721357 C 0.34220758429896714 -2.27995063491038 0.3613176221095602 -2.2894071484661374 0.38180673481370087 -2.295120458739407 C 0.40229584751784175 -2.3008337690126774 0.4237700137173739 -2.3036904241493126 0.4462292334122975 -2.3036904241493126 C 0.479327030857448 -2.3036904241493126 0.5100606999136592 -2.296302522933877 0.5384302405809311 -2.281526720503006 C 0.5667997812482031 -2.2667509180721357 0.5913276132834484 -2.246655826766151 0.6120137366866676 -2.2212414465850534 C 0.6326998600898865 -2.1958270664039556 0.6489532427638445 -2.1662754615422144 0.6607738847085411 -2.1325866319998292 C 0.6725945266532378 -2.0988978024574436 0.6785048476255862 -2.063140360574736 0.6785048476255862 -2.0253143063517074 C 0.6785048476255862 -1.9870942307305215 0.6726930320027769 -1.9511397781487358 0.6610694007571585 -1.9174509486063505 C 0.6494457695115401 -1.883762119063965 0.6333893975366605 -1.8543090195517626 0.6129002848325198 -1.8290916500697432 C 0.5924111721283791 -1.803874280587724 0.5679818454426728 -1.7838776946312787 0.5396123047754009 -1.769101892200408 C 0.511242764108129 -1.7543260897695372 0.48011507365376116 -1.7469381885541018 0.4462292334122975 -1.7469381885541018 C 0.42258794952290435 -1.7469381885541018 0.40052275122613734 -1.7507798971861284 0.38003363852199645 -1.7584633144501811 C 0.3595445258178558 -1.7661467317142339 0.34092701475495835 -1.7762927827167652 0.3241811053333048 -1.7889014674577748 C 0.30743519591165125 -1.8015101521987844 0.29275789883031966 -1.8159904385810377 0.28014921408931004 -1.8323423266045349 C 0.2675405293483002 -1.8486942146280319 0.25768999439438645 -1.865735640098303 0.2505976092275686 -1.8834666030153477 L 0.060285273917952686 -1.830273714264213 C 0.07249993726080595 -1.7916596172448707 0.09042791087692925 -1.7559021753621635 0.11406919476632238 -1.723001388616091 C 0.1377104786557155 -1.6901006018700189 0.1661785246725267 -1.661632555853208 0.19947333281675572 -1.637597250565658 C 0.23276814096098453 -1.6135619452781083 0.27020017378585703 -1.5946489181665937 0.31176943129137347 -1.5808581692311143 C 0.3533386887968901 -1.567067420295635 0.39815862283719805 -1.5601720458278951 0.4462292334122975 -1.5601720458278951 C 0.48681343742242245 -1.5601720458278951 0.5256245451408432 -1.565688345402087 0.5626625565675591 -1.5767209445504704 C 0.5997005679942751 -1.5877535436988541 0.6342759456825127 -1.603317388926038 0.6663886896322722 -1.623412480232022 C 0.6985014335820312 -1.6435075715380065 0.7276590170456163 -1.6677398875246345 0.753861440023027 -1.6961094281919062 C 0.780063863000438 -1.7244789688591782 0.8024245773458223 -1.7559021753621633 0.8209435830591802 -1.7903790477008619 C 0.8394625887725384 -1.8248559200395602 0.8538443698052527 -1.8618939314662764 0.8640889261573229 -1.90149308198101 C 0.8743334825093934 -1.9410922324957438 0.8794557606854286 -1.9823659739526427 0.8794557606854286 -2.0253143063517074 C 0.8794557606854286 -2.0895397942512255 0.8682261508379667 -2.149726562819639 0.8457669311430432 -2.205874612056948 C 0.8233077114481198 -2.2620226612942567 0.7925740423919083 -2.3110783253647478 0.7535659239744095 -2.353041604268421 C 0.7145578055569106 -2.395004883172094 0.6687528180212114 -2.4281026806172443 0.6161509613673113 -2.4523349966038723 C 0.5635491047134114 -2.4765673125905003 0.5069085287284067 -2.4886834705838146 0.4462292334122975 -2.4886834705838146 C 0.39776460143904124 -2.4886834705838146 0.356983386729838 -2.482674644261927 0.32388558928468747 -2.4706569916181524 C 0.29078779183953696 -2.4586393389743773 0.2543408125100559 -2.434899549735445 0.2145446512962439 -2.3994376239013553 L 0.08215346151564162 -2.3994376239013553 L 0.08215346151564162 -2.199668775035982 L 0.2647823795612043 -2.199668775035982" fill="#b9625d" transform="matrix(1,0,0,1,0,0)" fill-rule="nonzero"></path></g></g></g><defs><clipPath id="SvgjsClipPath80887"><path d=" M -1.8369277582058547 -3.8613555164117095 h 3.6738555164117095 v 3.6738555164117095 h -3.6738555164117095 Z"></path></clipPath><clipPath id="SvgjsClipPath8088549ce2bf8-c631-4a16-a102-396f58a12895"><path d=" M -1.8369277582058547 -3.8466600943460625 L 1.8369277582058547 -3.8466600943460625 L 1.8369277582058547 -0.202195422065647 L -1.8369277582058547 -0.202195422065647 Z"></path></clipPath></defs></svg>